<svg width="50" height="50" viewBox="0 0 50 50" fill="none" xmlns="http://www.w3.org/2000/svg">
<path d="M24.8566 49.9989C10.7594 49.8698 -0.149266 38.5896 0.00154489 24.3189C0.145174 10.8658 11.6355 -0.149068 25.3665 0.00152604C39.119 0.15212 50.1211 11.4682 49.999 25.3301C49.8697 39.0414 38.5733 50.128 24.8566 49.9989ZM32.7347 46.8794C32.706 46.5926 32.7204 46.399 32.6629 46.2197C29.898 37.4924 24.7561 30.7372 16.4112 26.6424C15.255 26.0759 14.027 25.6671 12.8492 25.1508C11.2406 24.448 10.4075 22.9493 10.6158 21.221C10.8169 19.5573 12.0736 18.288 13.7972 18.0155C14.4076 17.9223 15.0252 17.8362 15.6428 17.7645C19.9589 17.2697 24.2821 16.7821 28.5982 16.2729C30.1566 16.0864 30.9824 14.7239 30.0776 13.72C29.6754 13.2754 28.8352 13.0459 28.196 13.0387C20.835 12.9885 13.474 13.0244 6.11298 12.967C5.10757 12.9598 4.79877 13.5263 4.43969 14.2148C-1.72202 25.9611 3.24038 40.5473 15.3196 46.0619C20.9786 48.6651 26.7956 48.8659 32.7347 46.8794ZM8.32488 9.08022C9.07175 9.08022 9.53136 9.08022 9.99097 9.08022C16.6913 9.08022 23.3844 9.06589 30.0848 9.0874C33.2805 9.09457 35.6863 11.2459 35.9305 14.222C36.1962 17.4275 34.1997 19.9517 30.8891 20.4035C27.7149 20.8338 24.5263 21.1134 21.3449 21.4792C20.5477 21.5724 19.765 21.7302 18.9678 21.8592C28.7562 25.2584 37.5032 29.9483 43.8804 38.2884C50.3581 29.8981 50.0636 15.5486 39.7295 7.05797C29.3881 -1.41835 15.2263 1.21345 8.32488 9.08022Z" fill="white"/>
</svg>
