<svg width="69" height="69" viewBox="0 0 69 69" fill="none" xmlns="http://www.w3.org/2000/svg">
<path d="M58.64 10.06C52.15 3.57003 43.53 0 34.35 0C25.18 0 16.55 3.57003 10.06 10.06C3.57001 16.55 0 25.17 0 34.35C0 43.52 3.57001 52.15 10.06 58.64C16.55 65.13 25.17 68.7 34.35 68.7C43.53 68.7 52.15 65.13 58.64 58.64C65.13 52.15 68.7 43.53 68.7 34.35C68.7 25.17 65.13 16.54 58.64 10.06ZM34.35 2.86002C51.71 2.86002 65.84 16.98 65.84 34.35C65.84 41.15 63.67 47.46 59.99 52.61C51.35 39.97 33.54 32.4 26.34 30.7C26.14 30.65 26 30.48 26 30.27C26 30.05 26.17 29.86 26.39 29.84L42.35 28.1C46.3 27.68 49.29 24.34 49.29 20.38C49.29 16.09 45.81 12.61 41.52 12.61H11.6C17.34 6.60002 25.42 2.86002 34.35 2.86002ZM2.87 34.34C2.87 28.33 4.56 22.71 7.5 17.92H39.55C40.78 17.92 41.79 18.92 41.79 20.16C41.79 21.29 40.95 22.24 39.84 22.38L19.18 24.8C16.62 25.1 14.68 27.27 14.68 29.85C14.68 32.01 16.04 33.94 18.09 34.65C36.68 41.13 43.07 56.96 45.03 63.96C41.7 65.16 38.11 65.82 34.37 65.82C16.99 65.83 2.87 51.71 2.87 34.34Z" fill="black"/>
</svg>
