<svg xmlns="http://www.w3.org/2000/svg" width="187" height="117" viewBox="0 0 187 117" fill="none"><path d="M186.096 117H0V43.3676L41.6215 6.27051L83.6683 43.2306V64.8535H78.2077V45.6998L41.6443 13.5638L5.46066 45.8168V111.539H186.096V117Z" fill="#2A3A9B"></path><path d="M94.0735 65.6479H88.6128V41.7014L46.0693 4.09336L49.686 0L94.0735 39.2409V65.6479Z" fill="#2A3A9B"></path><path d="M41.0304 43.7363H31.5449V53.2218H41.0304V43.7363Z" fill="#2A3A9B"></path><path d="M52.6398 43.7363H43.1543V53.2218H52.6398V43.7363Z" fill="#2A3A9B"></path><path d="M41.0304 55.3975H31.5449V64.883H41.0304V55.3975Z" fill="#2A3A9B"></path><path d="M52.6398 55.3975H43.1543V64.883H52.6398V55.3975Z" fill="#2A3A9B"></path><path d="M93.1426 104.378V73.3984H99.4567V86.1038H104.912V73.3984H111.226V104.378H104.912V90.6082H99.4567V104.378H93.1426Z" fill="#FF832F"></path><path d="M121.077 104.753C118.685 104.753 116.855 104.108 115.585 102.82C114.314 101.53 113.678 99.6774 113.678 97.2625V89.3784C113.678 86.9749 114.314 85.128 115.585 83.8378C116.855 82.5475 118.687 81.9053 121.077 81.9053C123.48 81.9053 125.327 82.5504 126.617 83.8378C127.907 85.128 128.55 86.9749 128.55 89.3784V97.2625C128.55 99.666 127.905 101.516 126.617 102.812C125.33 104.105 123.483 104.753 121.077 104.753ZM121.097 100.791C121.782 100.791 122.241 100.525 122.478 99.9971C122.715 99.469 122.832 98.6926 122.832 97.6707V88.9816C122.832 87.9483 122.712 87.1661 122.478 86.638C122.241 86.11 121.782 85.8445 121.097 85.8445C120.423 85.8445 119.972 86.1157 119.741 86.658C119.509 87.2004 119.395 87.9768 119.395 88.9844V97.6736C119.395 98.6812 119.509 99.4548 119.741 99.9914C119.972 100.522 120.423 100.791 121.097 100.791Z" fill="#FF832F"></path><path d="M130.591 104.379V82.2568H136.177V84.1065C137.673 82.5993 139.423 81.8457 141.427 81.8457C142.297 81.8457 143.059 82.0712 143.707 82.5194C144.355 82.9675 144.84 83.6355 145.166 84.5175C146.736 82.7363 148.611 81.8457 150.789 81.8457C152.06 81.8457 153.076 82.311 153.835 83.2387C154.594 84.1664 154.974 85.4709 154.974 87.1522V104.379H149.368V87.6946C149.368 87.0095 149.248 86.5157 149.014 86.2102C148.777 85.9048 148.423 85.7649 147.949 85.7906C147.175 85.7906 146.385 86.1275 145.577 86.7983C145.588 86.8725 145.597 86.9924 145.597 87.1522V104.379H140.028V87.6946C140.039 87.0095 139.922 86.5185 139.674 86.2188C139.448 85.9334 139.12 85.7878 138.683 85.7878C138.646 85.7878 138.609 85.7878 138.572 85.7878C137.85 85.7878 137.053 86.136 136.18 86.8354V104.382H130.591V104.379Z" fill="#FF832F"></path><path d="M164.282 104.753C161.804 104.753 159.946 104.076 158.713 102.726C157.48 101.376 156.863 99.4347 156.863 96.9056V89.7494C156.863 87.2203 157.486 85.2821 158.733 83.929C159.978 82.5789 161.822 81.9023 164.265 81.9023C166.768 81.9023 168.584 82.5789 169.711 83.929C170.839 85.2821 171.401 87.2888 171.401 89.9549V93.6543H162.601V97.2796C162.601 98.3757 162.712 99.2006 162.938 99.7544C163.163 100.308 163.603 100.585 164.265 100.585C165.41 100.585 165.983 99.7573 165.983 98.0988V96.0435H171.384V97.8362C171.384 100.08 170.773 101.793 169.554 102.974C168.33 104.162 166.574 104.753 164.282 104.753ZM162.601 90.8683H165.983V88.7018C165.983 87.7541 165.844 87.0747 165.564 86.6637C165.284 86.2526 164.844 86.0471 164.248 86.0471C163.651 86.0471 163.226 86.2811 162.978 86.7493C162.729 87.2174 162.604 88.0367 162.604 89.207V90.8683H162.601Z" fill="#FF832F"></path><path d="M179.514 104.752C175.826 104.752 173.374 102.84 172.152 99.0149L176.32 97.3336C177.031 99.6144 178.033 100.753 179.329 100.753C179.377 100.753 179.428 100.753 179.477 100.753C179.951 100.728 180.336 100.554 180.636 100.231C180.91 99.9312 181.047 99.5716 181.047 99.1463C181.047 99.1091 181.047 99.072 181.047 99.0349C181.021 98.3755 180.156 97.3165 178.449 95.8579L176.169 93.9139C173.851 91.9472 172.692 89.9519 172.692 87.9338C172.692 86.1411 173.328 84.6825 174.599 83.5607C175.843 82.4531 177.396 81.8965 179.251 81.8965C181.021 81.8965 182.48 82.4046 183.633 83.4179C184.786 84.4341 185.574 85.8329 185.997 87.6112L182.223 89.2925C181.998 88.3819 181.658 87.6083 181.204 86.9661C180.75 86.3238 180.199 85.9984 179.551 85.9841C179.514 85.9841 179.477 85.9841 179.44 85.9841C178.992 85.9841 178.629 86.1212 178.355 86.3952C178.055 86.6949 177.901 87.0489 177.887 87.4599C177.876 87.7454 178.01 88.085 178.29 88.479C178.569 88.8729 178.843 89.1955 179.112 89.4495C179.38 89.7064 179.8 90.0832 180.373 90.5799L182.654 92.6351C183.114 93.0348 183.479 93.3602 183.747 93.6171C184.016 93.874 184.338 94.2194 184.718 94.6533C185.098 95.09 185.392 95.4953 185.597 95.8693C185.803 96.2432 185.982 96.6857 186.139 97.1966C186.296 97.7076 186.373 98.2357 186.373 98.7837C186.373 100.028 186.057 101.113 185.42 102.035C184.786 102.957 183.956 103.639 182.934 104.082C181.912 104.53 180.773 104.752 179.514 104.752Z" fill="#FF832F"></path><path d="M19.177 104.378L13.2539 73.3984H18.7288L22.3912 94.5874L25.828 73.3984H31.5456L25.5854 104.378H19.177Z" fill="#FF832F"></path><path d="M37.0233 104.752C36.0271 104.741 35.1394 104.467 34.3601 103.93C33.5808 103.394 33.0013 102.729 32.6217 101.932C32.242 101.136 32.0508 100.294 32.0508 99.4089C32.0508 98.8351 32.1079 98.287 32.2192 97.7647C32.3305 97.2423 32.4675 96.7742 32.6302 96.3631C32.793 95.9521 33.0242 95.5581 33.321 95.1756C33.6208 94.796 33.9005 94.4649 34.1631 94.1851C34.4257 93.9054 34.7711 93.6228 35.1993 93.3345C35.6303 93.049 35.9986 92.815 36.3097 92.6323C36.6208 92.4524 37.0262 92.2498 37.5257 92.0243C38.0224 91.7988 38.4192 91.6303 38.7132 91.5105C39.0044 91.3934 39.4097 91.2336 39.9264 91.0338C40.443 90.8339 40.8198 90.6912 41.0567 90.6027V88.5675C41.0567 87.7711 40.954 87.1745 40.7485 86.7834C40.5429 86.3895 40.1462 86.1954 39.561 86.1954C38.5762 86.1954 38.0595 86.8862 38.011 88.2706L37.8997 89.7835L32.4247 89.558C32.4247 89.3096 32.4447 89.0527 32.4818 88.793C32.6445 86.4266 33.361 84.6853 34.6313 83.5692C35.9015 82.4531 37.7141 81.8965 40.0691 81.8965C42.2499 81.8965 43.8913 82.4931 44.9931 83.6891C46.0949 84.8851 46.6459 86.5236 46.6459 88.6046V98.8265C46.6459 100.522 46.7829 102.372 47.0569 104.376H41.8817C41.5705 102.743 41.3907 101.684 41.3393 101.199C41.0396 102.206 40.5258 103.051 39.7979 103.731C39.07 104.413 38.1451 104.752 37.0233 104.752ZM39.1728 100.568C39.5096 100.568 39.855 100.442 40.209 100.194C40.5629 99.9455 40.8484 99.6715 41.0596 99.3718V93.3174C40.0263 93.854 39.1642 94.5534 38.4706 95.4183C37.7798 96.2832 37.4344 97.1852 37.4344 98.1186C37.4344 98.8665 37.5914 99.4602 37.9025 99.9027C38.2137 100.345 38.6361 100.568 39.1728 100.568Z" fill="#FF832F"></path><path d="M49.0205 104.377V82.2544H54.7952V85.8054C56.1653 83.2506 57.6725 81.9746 59.3167 81.9746C59.5793 81.9746 59.8591 82.0174 60.1588 82.1059V87.4695C59.7363 87.3211 59.2796 87.244 58.7943 87.244C57.9608 87.2811 57.2272 87.4952 56.5992 87.8891C55.9712 88.2831 55.3689 88.9025 54.7952 89.7474V104.377H49.0205Z" fill="#FF832F"></path><path d="M61.2432 104.379V82.2563H67.0178V84.4429C68.799 82.7501 70.5917 81.9023 72.3986 81.9023C73.6802 81.9023 74.6479 82.3733 75.2959 83.3125C75.9439 84.2545 76.2664 85.4391 76.2664 86.872V104.379H70.4746V87.8997C70.4746 87.2888 70.3804 86.8349 70.1949 86.5352C70.0065 86.2355 69.6582 86.0928 69.1473 86.1042C68.5507 86.1042 67.8399 86.3982 67.0178 86.9834V104.379H61.2432Z" fill="#FF832F"></path><path d="M84.4534 82.2549H78.6787V104.377H84.4534V82.2549Z" fill="#FF832F"></path><path d="M81.5842 80.02C83.3814 80.02 84.8384 78.5631 84.8384 76.7659C84.8384 74.9686 83.3814 73.5117 81.5842 73.5117C79.787 73.5117 78.3301 74.9686 78.3301 76.7659C78.3301 78.5631 79.787 80.02 81.5842 80.02Z" fill="#EC090F"></path></svg>